HIERARCHY
ROOT Hips
{
  OFFSET 3.13124 94.3669 -3.18751
  CHANNELS  6 Xposition Yposition Zposition Zrotation Xrotation Yrotation
  JOINT LeftUpLeg
  {
    OFFSET 8.64259 1.95398 -2.38835
    CHANNELS 3 Zrotation Xrotation Yrotation
    JOINT LeftLeg
    {
      OFFSET 43.7702 0 0
      CHANNELS 3 Zrotation Xrotation Yrotation
      JOINT LeftFoot
      {
        OFFSET 40.6238 0 0
        CHANNELS 3 Zrotation Xrotation Yrotation
        JOINT LeftToeBase
        {
          OFFSET 12.7242 0 0
          CHANNELS 3 Zrotation Xrotation Yrotation
          End Site
          {
            OFFSET 0 0 0
          }
        }
      }
    }
  }
  JOINT RightUpLeg
  {
    OFFSET -8.2249 1.95398 -2.59336
    CHANNELS 3 Zrotation Xrotation Yrotation
    JOINT RightLeg
    {
      OFFSET 43.5653 0 0
      CHANNELS 3 Zrotation Xrotation Yrotation
      JOINT RightFoot
      {
        OFFSET 40.6238 0 0
        CHANNELS 3 Zrotation Xrotation Yrotation
        JOINT RightToeBase
        {
          OFFSET 12.7242 0 0
          CHANNELS 3 Zrotation Xrotation Yrotation
          End Site
          {
            OFFSET 0 0 0
          }
        }
      }
    }
  }
  JOINT Spine
  {
    OFFSET 0.165834 0.87714 6.61349
    CHANNELS 3 Zrotation Xrotation Yrotation
    JOINT Spine1
    {
      OFFSET 7.38962 1.71661e-005 0
      CHANNELS 3 Zrotation Xrotation Yrotation
      JOINT Spine2
      {
        OFFSET 11.9445 1.14441e-005 0
        CHANNELS 3 Zrotation Xrotation Yrotation
        JOINT Spine3
        {
          OFFSET 14.7254 4.19617e-005 0
          CHANNELS 3 Zrotation Xrotation Yrotation
          JOINT Spine4
          {
            OFFSET 10.9679 0 0
            CHANNELS 3 Zrotation Xrotation Yrotation
            JOINT RightShoulder
            {
              OFFSET 2.46616 -1.6653 3.69651
              CHANNELS 3 Zrotation Xrotation Yrotation
              JOINT RightArm
              {
                OFFSET 13.0012 0 0
                CHANNELS 3 Zrotation Xrotation Yrotation
                JOINT RightForeArm
                {
                  OFFSET 28.7848 1.52588e-005 0
                  CHANNELS 3 Zrotation Xrotation Yrotation
                  JOINT RightHand
                  {
                    OFFSET 26.5688 1.52588e-005 0
                    CHANNELS 3 Zrotation Xrotation Yrotation
                    End Site
                    {
                      OFFSET 0 0 0
                    }
                  }
                }
              }
            }
            JOINT LeftShoulder
            {
              OFFSET 2.38034 -1.29275 -3.75231
              CHANNELS 3 Zrotation Xrotation Yrotation
              JOINT LeftArm
              {
                OFFSET 16.3182 6.10352e-005 0
                CHANNELS 3 Zrotation Xrotation Yrotation
                JOINT LeftForeArm
                {
                  OFFSET 27.0901 0 0
                  CHANNELS 3 Zrotation Xrotation Yrotation
                  JOINT LeftHand
                  {
                    OFFSET 24.5451 1.52588e-005 0
                    CHANNELS 3 Zrotation Xrotation Yrotation
                    End Site
                    {
                      OFFSET 0 0 0
                    }
                  }
                }
              }
            }
            JOINT Neck
            {
              OFFSET 5.0226 -0.0266342 0
              CHANNELS 3 Zrotation Xrotation Yrotation
              JOINT Head
              {
                OFFSET 6.69363 2.86102e-005 0
                CHANNELS 3 Zrotation Xrotation Yrotation
                End Site
                {
                  OFFSET 0 0 0
                }
              }
            }
          }
        }
      }
    }
  }
}
MOTION
Frames:	6
Frame Time:	0.0333333
-80.829 86.942 -138.112 -90.3685 -15.2237 -84.516 -179.002 35.9597 96.1276 -32.1542 -37.5647 -9.17247 49.603 11.7733 8.4526 28.7808 5.88671e-006 4.06985e-006 -179.83 3.34414 101.068 -61.1321 18.2754 0.4245 51.4845 13.5348 10.0578 28.7808 1.40415e-005 2.56726e-005 -1.86698 7.05168 -86.152 12.7074 -2.25591 5.04513 1.02821 -2.03198 5.1392 -21.4657 -3.66668 4.13618 -1.45304 -3.66669 4.13617 101.095 -13.1181 -85.1788 20.0929 18.2632 45.926 -9.40658 -8.85461 -37.7212 25.8785 3.14178 8.29497 -80.8494 -64.2109 93.2395 23.7957 -40.4198 -29.0659 2.46392 9.38327 -3.50838 0.67625 -0.188589 -8.03779 -9.1025 26.3877 32.719 -8.50467 22.2604 36.6249 
-84.8311 88.1104 -136.674 -89.3885 -20.224 -84.0984 -179.041 34.9058 94.018 -32.4581 -32.7758 -7.69557 51.9242 10.975 7.5349 28.7808 5.88671e-006 4.06985e-006 179.816 4.85629 100.45 -63.3855 17.2245 0.31092 52.2655 12.2036 8.95934 28.7808 1.40415e-005 2.56726e-005 -1.72283 6.97886 -86.0008 12.846 -2.00095 5.10193 1.16627 -1.77478 5.18475 -21.321 -3.44051 4.26707 -1.30839 -3.4405 4.26705 100.781 -14.7806 -85.9118 16.93 18.8429 44.3189 -1.28605 2.91671 -36.0411 27.3466 4.75026 13.9367 -77.6457 -64.766 97.3945 29.2727 -41.6627 -24.9809 2.38799 6.01688 -3.42862 3.58024 -0.327564 -8.91933 -9.2631 25.6914 35.6152 -7.97746 21.708 34.8502 
-88.2519 88.954 -135.286 -89.079 -25.8637 -84.1086 -179.168 33.1386 91.5358 -32.2168 -28.125 -5.76231 53.765 10.5185 6.97212 28.7808 5.88671e-006 4.06985e-006 179.221 7.89501 100.028 -67.9786 20.5864 0.439504 50.2698 11.2113 8.61714 28.7808 1.40415e-005 2.56726e-005 -1.55627 7.03968 -85.8208 12.7145 -1.79467 5.05038 1.03471 -1.57098 5.12421 -21.4501 -3.22825 4.27979 -1.43744 -3.22827 4.27978 100.56 -14.3171 -86.5533 15.2954 19.3463 44.3789 1.90034 7.08452 -38.4809 26.9819 6.07444 19.4054 -75.2596 -64.0832 100.492 32.9336 -42.1522 -21.907 2.34612 4.07823 -3.38402 10.525 -0.654256 -9.36114 -9.21488 25.1485 38.359 -8.76974 20.8666 33.4473 
-91.2707 89.5867 -133.936 -88.1511 -32.3913 -83.7166 -179.441 31.5701 89.0655 -31.3088 -23.0149 -3.74644 55.8837 9.97563 6.3526 28.7808 5.88671e-006 4.06985e-006 178.293 13.3952 99.8759 -74.5303 26.4358 0.719101 44.5864 15.3377 13.0215 28.7808 1.40415e-005 2.56726e-005 -1.38197 7.06524 -85.764 12.66 -1.57647 4.86167 0.980733 -1.36122 4.92611 -21.5052 -2.96354 4.16509 -1.49256 -2.96355 4.16509 100.579 -13.5245 -86.5862 13.7945 19.8917 43.7823 -1.32784 2.438 -40.011 24.1341 6.01371 21.9663 -74.3776 -63.2614 101.673 35.6831 -42.8716 -20.4712 2.18377 -4.29156 -3.21076 11.3855 -0.756494 -9.89431 -9.15206 24.5484 39.958 -11.321 19.5731 32.0971 
-94.0558 90.072 -132.658 -86.1496 -40.5275 -83.0078 -179.936 30.6329 85.9377 -30.4487 -16.8033 -1.51887 56.7767 9.72967 6.06318 28.7808 5.88671e-006 4.06985e-006 177.276 20.5919 99.0969 -80.975 28.7087 0.750148 41.7485 14.4773 13.0226 28.7808 1.40415e-005 2.56726e-005 -1.43279 7.03439 -85.6566 12.7135 -1.63443 4.74148 1.03466 -1.4244 4.8086 -21.4553 -2.98282 4.03292 -1.4426 -2.9828 4.03291 100.535 -12.4619 -86.8253 12.9001 20.3987 43.6703 -7.37084 -4.97784 -42.7044 17.9018 4.75431 23.4395 -74.178 -61.9103 101.998 37.1631 -43.312 -19.8358 2.01787 -14.3848 -3.02916 10.2825 -1.1699 -14.0676 -9.74341 23.5794 40.7396 -13.2848 18.3918 30.7951 
-96.3512 90.3461 -131.378 -84.9025 -48.5057 -82.8102 179.6 28.696 82.8561 -29.5512 -10.8585 0.459438 57.9176 10.2688 6.26666 28.7808 5.88671e-006 4.06985e-006 177.107 26.8306 97.1551 -86.5028 30.0274 0.725942 37.5501 14.1189 13.7702 28.7808 1.40415e-005 2.56726e-005 -1.35765 7.02857 -85.5373 12.72 -1.44959 4.61109 1.04149 -1.24549 4.67024 -21.4487 -2.7674 3.96393 -1.43602 -2.7674 3.96391 100.456 -11.6439 -87.1482 11.6735 20.5104 39.153 -5.50003 -3.25088 -37.7655 5.45964 1.1514 17.5613 -73.6325 -61.6857 102.735 38.2136 -44.5289 -21.0905 1.94223 -19.5586 -2.94356 7.71044 -0.881441 -13.3166 -11.0235 22.1522 41.237 -14.5977 17.2887 29.1273 
